<svg width="145" height="16" viewBox="0 0 145 16" fill="none" xmlns="http://www.w3.org/2000/svg">
<path d="M3.33949 0.454545V15H0.264205V0.454545H3.33949ZM5.3157 2.99006V0.454545H17.2617V2.99006H12.8086V15H9.76882V2.99006H5.3157ZM25.3636 6.52699V8.92756H18.7301V6.52699H25.3636ZM31.0739 0.454545V15H27.9986V0.454545H31.0739ZM45.7702 0.454545V15H43.114L36.7859 5.84517H36.6793V15H33.604V0.454545H36.3029L42.5813 9.60227H42.7092V0.454545H45.7702ZM61.1449 5.54688H58.0341C57.9773 5.14441 57.8613 4.78693 57.6861 4.47443C57.5109 4.1572 57.286 3.88731 57.0114 3.66477C56.7367 3.44223 56.4195 3.27178 56.0597 3.15341C55.7045 3.03504 55.3187 2.97585 54.902 2.97585C54.1491 2.97585 53.4934 3.16288 52.9347 3.53693C52.3759 3.90625 51.9427 4.44602 51.6349 5.15625C51.3272 5.86174 51.1733 6.71875 51.1733 7.72727C51.1733 8.7642 51.3272 9.63542 51.6349 10.3409C51.9474 11.0464 52.383 11.5791 52.9418 11.9389C53.5005 12.2988 54.1468 12.4787 54.8807 12.4787C55.2926 12.4787 55.6738 12.4242 56.0241 12.3153C56.3793 12.2064 56.6941 12.0478 56.9688 11.8395C57.2434 11.6264 57.4706 11.3684 57.6506 11.0653C57.8352 10.7623 57.9631 10.4167 58.0341 10.0284L61.1449 10.0426C61.0644 10.7102 60.8632 11.3542 60.5412 11.9744C60.224 12.59 59.7955 13.1416 59.2557 13.6293C58.7206 14.1122 58.0814 14.4957 57.3381 14.7798C56.5994 15.0592 55.7637 15.1989 54.831 15.1989C53.5336 15.1989 52.3736 14.9053 51.3509 14.3182C50.3329 13.7311 49.5279 12.8812 48.9361 11.7685C48.349 10.6558 48.0554 9.30871 48.0554 7.72727C48.0554 6.1411 48.3537 4.79167 48.9503 3.67898C49.5469 2.56629 50.3565 1.71875 51.3793 1.13636C52.402 0.549242 53.5526 0.255681 54.831 0.255681C55.6738 0.255681 56.455 0.374053 57.1747 0.610795C57.8991 0.847538 58.5407 1.19318 59.0994 1.64773C59.6581 2.09754 60.1127 2.64915 60.4631 3.30256C60.8182 3.95597 61.0455 4.70407 61.1449 5.54688ZM72.3345 0.454545H75.4098V9.90057C75.4098 10.9612 75.1565 11.8892 74.6499 12.6847C74.148 13.4801 73.4448 14.1004 72.5405 14.5455C71.6361 14.9858 70.5826 15.206 69.38 15.206C68.1726 15.206 67.1167 14.9858 66.2124 14.5455C65.308 14.1004 64.6049 13.4801 64.103 12.6847C63.6011 11.8892 63.3501 10.9612 63.3501 9.90057V0.454545H66.4254V9.63778C66.4254 10.1918 66.5462 10.6842 66.7876 11.1151C67.0339 11.5459 67.3795 11.8845 67.8246 12.1307C68.2696 12.3769 68.7881 12.5 69.38 12.5C69.9766 12.5 70.495 12.3769 70.9354 12.1307C71.3804 11.8845 71.7237 11.5459 71.9652 11.1151C72.2114 10.6842 72.3345 10.1918 72.3345 9.63778V0.454545ZM77.94 15V0.454545H83.7638C84.8339 0.454545 85.7264 0.613163 86.4414 0.930398C87.1564 1.24763 87.6938 1.68797 88.0536 2.25142C88.4135 2.81013 88.5934 3.45407 88.5934 4.18324C88.5934 4.75142 88.4798 5.25095 88.2525 5.68182C88.0252 6.10795 87.7127 6.45833 87.315 6.73295C86.922 7.00284 86.4722 7.1946 85.9656 7.30824V7.45028C86.5195 7.47396 87.038 7.63021 87.521 7.91903C88.0086 8.20786 88.404 8.61269 88.707 9.13352C89.0101 9.64962 89.1616 10.2652 89.1616 10.9801C89.1616 11.7519 88.9698 12.4408 88.5863 13.0469C88.2075 13.6482 87.6464 14.1241 86.9031 14.4744C86.1597 14.8248 85.2435 15 84.1545 15H77.94ZM81.0153 12.4858H83.5224C84.3794 12.4858 85.0044 12.3224 85.3974 11.9957C85.7904 11.6643 85.9869 11.224 85.9869 10.6747C85.9869 10.2723 85.8898 9.91714 85.6957 9.60938C85.5015 9.30161 85.2246 9.06013 84.8647 8.88494C84.5096 8.70975 84.0858 8.62216 83.5934 8.62216H81.0153V12.4858ZM81.0153 6.54119H83.2951C83.7165 6.54119 84.0906 6.4678 84.4173 6.32102C84.7487 6.16951 85.0091 5.95644 85.1985 5.68182C85.3926 5.4072 85.4897 5.07812 85.4897 4.6946C85.4897 4.16903 85.3027 3.74527 84.9286 3.4233C84.5593 3.10133 84.0337 2.94034 83.3519 2.94034H81.0153V6.54119ZM93.6697 15H90.3743L95.3956 0.454545H99.3587L104.373 15H101.077L97.4339 3.77841H97.3203L93.6697 15ZM93.4638 9.28267H101.248V11.6832H93.4638V9.28267ZM103.792 2.99006V0.454545H115.738V2.99006H111.285V15H108.245V2.99006H103.792ZM130.408 7.72727C130.408 9.31345 130.107 10.6629 129.506 11.7756C128.909 12.8883 128.095 13.7382 127.063 14.3253C126.035 14.9077 124.88 15.1989 123.597 15.1989C122.304 15.1989 121.144 14.9053 120.117 14.3182C119.089 13.7311 118.277 12.8812 117.681 11.7685C117.084 10.6558 116.786 9.30871 116.786 7.72727C116.786 6.1411 117.084 4.79167 117.681 3.67898C118.277 2.56629 119.089 1.71875 120.117 1.13636C121.144 0.549242 122.304 0.255681 123.597 0.255681C124.88 0.255681 126.035 0.549242 127.063 1.13636C128.095 1.71875 128.909 2.56629 129.506 3.67898C130.107 4.79167 130.408 6.1411 130.408 7.72727ZM127.29 7.72727C127.29 6.69981 127.136 5.83333 126.828 5.12784C126.525 4.42235 126.097 3.88731 125.543 3.52273C124.989 3.15814 124.34 2.97585 123.597 2.97585C122.854 2.97585 122.205 3.15814 121.651 3.52273C121.097 3.88731 120.666 4.42235 120.358 5.12784C120.055 5.83333 119.904 6.69981 119.904 7.72727C119.904 8.75473 120.055 9.62121 120.358 10.3267C120.666 11.0322 121.097 11.5672 121.651 11.9318C122.205 12.2964 122.854 12.4787 123.597 12.4787C124.34 12.4787 124.989 12.2964 125.543 11.9318C126.097 11.5672 126.525 11.0322 126.828 10.3267C127.136 9.62121 127.29 8.75473 127.29 7.72727ZM132.686 15V0.454545H138.425C139.523 0.454545 140.461 0.651041 141.237 1.04403C142.018 1.43229 142.613 1.9839 143.02 2.69886C143.432 3.40909 143.638 4.24479 143.638 5.20597C143.638 6.17187 143.429 7.00284 143.013 7.69886C142.596 8.39015 141.992 8.92045 141.202 9.28977C140.416 9.65909 139.464 9.84375 138.347 9.84375H134.504V7.37216H137.849C138.437 7.37216 138.924 7.29167 139.312 7.13068C139.701 6.9697 139.99 6.72822 140.179 6.40625C140.373 6.08428 140.47 5.68419 140.47 5.20597C140.47 4.72301 140.373 4.31581 140.179 3.98438C139.99 3.65294 139.698 3.40199 139.305 3.23153C138.917 3.05634 138.427 2.96875 137.835 2.96875H135.761V15H132.686ZM140.541 8.38068L144.156 15H140.761L137.224 8.38068H140.541Z" fill="white"/>
</svg>
